<svg width="14" height="14" xmlns="http://www.w3.org/2000/svg" xmlns:xlink="http://www.w3.org/1999/xlink" xml:space="preserve" overflow="hidden"><g><path d="M6.99781 1.45833C3.93884 1.45825 1.459 3.93797 1.45892 6.99694 1.45883 10.0559 3.93855 12.5357 6.99752 12.5358 10.0565 12.5359 12.5363 10.0562 12.5364 6.99723 12.5364 6.99704 12.5364 6.99683 12.5364 6.99665 12.5375 3.93905 10.0598 1.45946 7.00219 1.45833 7.00073 1.45833 6.99927 1.45833 6.99781 1.45833ZM9.4726 8.77465 8.77537 9.47187 6.99781 7.69402 5.22083 9.47158 4.5236 8.77435 6.3 6.99665 4.52287 5.21908 5.22083 4.52185 6.99781 6.3 8.77537 4.52185 9.4726 5.21908 7.69504 6.99665Z" fill="#FF8585"/></g></svg>